<?xml version="1.0" encoding="UTF-8" standalone="no"?>
<svg
   width="250"
   height="250"
   viewBox="0 0 66.145833 66.145833"
   version="1.1"
   id="svg8"
   inkscape:version="1.1.2 (0a00cf5339, 2022-02-04, custom)"
   sodipodi:docname="dais-round.svg"
   inkscape:export-filename="/home/tuirgin/repos/dungeondraft-map-symbols/textures/objects/dais-round-v2.png"
   inkscape:export-xdpi="393.20999"
   inkscape:export-ydpi="393.20999"
   xmlns:inkscape="http://www.inkscape.org/namespaces/inkscape"
   xmlns:sodipodi="http://sodipodi.sourceforge.net/DTD/sodipodi-0.dtd"
   xmlns="http://www.w3.org/2000/svg"
   xmlns:svg="http://www.w3.org/2000/svg"
   xmlns:rdf="http://www.w3.org/1999/02/22-rdf-syntax-ns#"
   xmlns:cc="http://creativecommons.org/ns#"
   xmlns:dc="http://purl.org/dc/elements/1.1/">
  <defs
     id="defs2">
    <rect
       x="9.3215187"
       y="9.7757984"
       width="47.632646"
       height="47.599103"
       id="rect1569" />
  </defs>
  <sodipodi:namedview
     id="base"
     pagecolor="#ffffff"
     bordercolor="#666666"
     borderopacity="1.0"
     inkscape:pageopacity="0.0"
     inkscape:pageshadow="2"
     inkscape:zoom="2.8"
     inkscape:cx="98.035714"
     inkscape:cy="91.785714"
     inkscape:document-units="px"
     inkscape:current-layer="layer1"
     inkscape:document-rotation="0"
     showgrid="false"
     inkscape:window-width="1920"
     inkscape:window-height="1027"
     inkscape:window-x="0"
     inkscape:window-y="0"
     inkscape:window-maximized="1"
     units="px"
     fit-margin-top="0"
     fit-margin-left="0"
     fit-margin-right="0"
     fit-margin-bottom="0"
     showborder="true"
     inkscape:showpageshadow="true"
     showguides="true"
     inkscape:guide-bbox="true"
     inkscape:lockguides="false"
     inkscape:pagecheckerboard="1">
    <sodipodi:guide
       position="9.2411051,60.308786"
       orientation="1,0"
       id="guide938"
       inkscape:locked="false" />
    <sodipodi:guide
       position="56.873751,59.111806"
       orientation="1,0"
       id="guide940"
       inkscape:locked="false" />
    <sodipodi:guide
       position="5.934793,56.881421"
       orientation="0,-1"
       id="guide942"
       inkscape:locked="false" />
    <sodipodi:guide
       position="52.614665,9.2823182"
       orientation="0,-1"
       id="guide944"
       inkscape:locked="false" />
  </sodipodi:namedview>
  <metadata
     id="metadata5">
    <rdf:RDF>
      <cc:Work
         rdf:about="">
        <dc:format>image/svg+xml</dc:format>
        <dc:type
           rdf:resource="http://purl.org/dc/dcmitype/StillImage" />
      </cc:Work>
    </rdf:RDF>
  </metadata>
  <g
     inkscape:label="Layer 1"
     inkscape:groupmode="layer"
     id="layer1"
     transform="translate(-0.08041364,-0.51138639)">
    <path
       id="path857"
       style="fill:#ffff00;stroke:#000000;stroke-width:1.61481;stroke-linecap:round;stroke-miterlimit:4;stroke-dasharray:none;stroke-opacity:1"
       d="M 8.2260223,17.014005 A 24.943304,24.943304 0 0 0 8.2103342,17.890493 24.943304,24.943304 0 0 0 33.153331,42.833995 24.943304,24.943304 0 0 0 58.09683,17.890493 24.943304,24.943304 0 0 0 58.08113,17.014005 Z m -3.5601044,0 c -0.00938,0.292373 -0.044531,0.583342 -0.044533,0.875984 1.195e-4,7.469866 3.0743072,14.893143 8.3565031,20.174934 5.282199,5.28179 12.706587,8.356956 20.176456,8.356502 7.469503,-1.2e-4 14.892693,-3.074766 20.17443,-8.356502 5.281735,-5.281737 8.356382,-12.705433 8.356502,-20.174934 -5e-6,-0.292686 -0.03514,-0.583565 -0.04453,-0.875984 z m -3.73418736,0 c -0.008165,0.292647 -0.0440251,0.58282 -0.0440268,0.875984 1.3573e-4,8.494252 3.44366956,16.808055 9.45059626,22.814523 6.006882,6.006421 14.321275,9.450605 22.816044,9.450089 8.494089,-1.37e-4 16.807615,-3.443688 22.814017,-9.450089 6.006399,-6.006401 9.450461,-14.320434 9.450596,-22.814523 -5e-6,-0.293172 -0.03584,-0.583329 -0.04403,-0.875984 z" />
  </g>
</svg>
