<?xml version="1.0" encoding="UTF-8" standalone="no"?>
<svg
   width="250"
   height="250"
   viewBox="0 0 66.145833 66.145833"
   version="1.1"
   id="svg8"
   inkscape:version="1.1.2 (0a00cf5339, 2022-02-04, custom)"
   sodipodi:docname="stairs-spiral-square-up.svg"
   xmlns:inkscape="http://www.inkscape.org/namespaces/inkscape"
   xmlns:sodipodi="http://sodipodi.sourceforge.net/DTD/sodipodi-0.dtd"
   xmlns="http://www.w3.org/2000/svg"
   xmlns:svg="http://www.w3.org/2000/svg"
   xmlns:rdf="http://www.w3.org/1999/02/22-rdf-syntax-ns#"
   xmlns:cc="http://creativecommons.org/ns#"
   xmlns:dc="http://purl.org/dc/elements/1.1/">
  <defs
     id="defs2" />
  <sodipodi:namedview
     id="base"
     pagecolor="#ffffff"
     bordercolor="#666666"
     borderopacity="1.0"
     inkscape:pageopacity="0.0"
     inkscape:pageshadow="2"
     inkscape:zoom="1.4142136"
     inkscape:cx="-0.35355338"
     inkscape:cy="125.865"
     inkscape:document-units="px"
     inkscape:current-layer="g4287"
     inkscape:document-rotation="0"
     showgrid="false"
     inkscape:window-width="1920"
     inkscape:window-height="1027"
     inkscape:window-x="0"
     inkscape:window-y="0"
     inkscape:window-maximized="1"
     units="px"
     fit-margin-top="0"
     fit-margin-left="0"
     fit-margin-right="0"
     fit-margin-bottom="0"
     showborder="true"
     inkscape:showpageshadow="true"
     showguides="true"
     inkscape:guide-bbox="true"
     inkscape:lockguides="false"
     inkscape:pagecheckerboard="1">
    <sodipodi:guide
       position="9.2411051,60.308786"
       orientation="1,0"
       id="guide938"
       inkscape:locked="false" />
    <sodipodi:guide
       position="56.873751,59.111806"
       orientation="1,0"
       id="guide940"
       inkscape:locked="false" />
    <sodipodi:guide
       position="20.800776,56.431375"
       orientation="0,-1"
       id="guide942"
       inkscape:locked="false" />
    <sodipodi:guide
       position="52.614665,9.2823182"
       orientation="0,-1"
       id="guide944"
       inkscape:locked="false" />
    <sodipodi:guide
       position="33.067943,65.761536"
       orientation="1,0"
       id="guide2690" />
    <sodipodi:guide
       position="6.4672111,33.0726"
       orientation="0,-1"
       id="guide2692" />
  </sodipodi:namedview>
  <metadata
     id="metadata5">
    <rdf:RDF>
      <cc:Work
         rdf:about="">
        <dc:format>image/svg+xml</dc:format>
        <dc:type
           rdf:resource="http://purl.org/dc/dcmitype/StillImage" />
      </cc:Work>
    </rdf:RDF>
  </metadata>
  <g
     inkscape:label="Layer 1"
     inkscape:groupmode="layer"
     id="layer1"
     transform="translate(-0.08041364,-0.51138639)">
    <g
       id="g4287"
       transform="matrix(0.85261813,0,0,0.85261813,4.8425164,4.7654928)">
      <path
         id="rect5069"
         style="fill:#ffff00;stroke-width:1.24127;stroke-linecap:square;paint-order:markers fill stroke"
         d="m 13.67974,8.6384974 h 38.915703 c 3.293835,0 5.945551,2.6517156 5.945551,5.9455506 v 38.433255 c 0,3.293835 -2.651716,5.94555 -5.945551,5.94555 H 13.67974 c -3.293835,0 -5.9455505,-2.651715 -5.9455505,-5.94555 V 14.584048 c 0,-3.293835 2.6517155,-5.9455506 5.9455505,-5.9455506 z" />
      <g
         aria-label="U"
         id="text3634"
         style="font-weight:bold;font-size:22.5778px;line-height:1.25;font-family:'Source Code Pro';-inkscape-font-specification:'Source Code Pro Bold';letter-spacing:0px;fill:#ffff00;stroke:#000000;stroke-width:1.24127">
        <path
           d="m 65.458377,29.401061 c 3.567292,0 5.283205,-2.122314 5.283205,-5.937962 v -9.053698 h -3.206047 v 9.392365 c 0,1.761068 -0.677334,2.731914 -2.077158,2.731914 -1.399824,0 -2.05458,-0.970846 -2.05458,-2.731914 V 14.409401 H 60.08486 v 9.053698 c 0,3.815648 1.783647,5.937962 5.373517,5.937962 z"
           id="path834" />
      </g>
      <g
         id="g4264"
         style="fill:#000000;stroke:none">
        <path
           id="rect3393"
           style="color:#000000;fill:#000000;stroke-width:3.99999999;stroke-linecap:round;stroke:none;stroke-opacity:1;stroke-miterlimit:4;stroke-dasharray:none"
           d="M 42.921875 43.916016 L 42.921875 49.033203 L 42.921875 206.08594 L 206.64648 206.08594 L 206.64648 43.916016 L 42.921875 43.916016 z M 60.101562 54.144531 L 121.00195 54.144531 L 121.00195 115.04102 L 60.101562 54.144531 z M 128.41211 54.144531 L 133.63281 54.144531 L 133.63281 120.20117 L 128.41211 120.20117 L 128.41211 54.144531 z M 140.9707 54.144531 L 146.18945 54.144531 L 146.18945 120.20117 L 140.9707 120.20117 L 140.9707 54.144531 z M 153.52734 54.144531 L 158.74805 54.144531 L 158.74805 120.20117 L 153.52734 120.20117 L 153.52734 54.144531 z M 166.08594 54.144531 L 171.30469 54.144531 L 171.30469 120.20117 L 166.08594 120.20117 L 166.08594 54.144531 z M 178.64258 54.144531 L 183.86328 54.144531 L 183.86328 120.20117 L 178.64258 120.20117 L 178.64258 54.144531 z M 191.20117 54.144531 L 196.41797 54.144531 L 196.41797 120.20117 L 191.20117 120.20117 L 191.20117 54.144531 z M 53.150391 58.041016 L 115.57422 120.46289 L 53.150391 120.46289 L 53.150391 58.041016 z M 53.150391 128.14062 L 115.57422 128.14062 L 53.150391 190.5625 L 53.150391 128.14062 z M 134.09961 128.14062 L 196.41797 128.14062 L 196.41797 190.45703 L 134.09961 128.14062 z M 121.00195 133.56641 L 121.00195 195.85156 L 58.716797 195.85156 L 121.00195 133.56641 z M 128.67188 133.56641 L 190.95703 195.85156 L 128.67188 195.85156 L 128.67188 133.56641 z "
           transform="matrix(0.31031868,0,0,0.31031868,-5.5852703,-4.9894628)" />
      </g>
    </g>
  </g>
</svg>
